<?xml version="1.0" encoding="UTF-8" standalone="no"?>
<svg
   xmlns:dc="http://purl.org/dc/elements/1.1/"
   xmlns:cc="http://creativecommons.org/ns#"
   xmlns:rdf="http://www.w3.org/1999/02/22-rdf-syntax-ns#"
   xmlns:svg="http://www.w3.org/2000/svg"
   xmlns="http://www.w3.org/2000/svg"
   xmlns:sodipodi="http://sodipodi.sourceforge.net/DTD/sodipodi-0.dtd"
   xmlns:inkscape="http://www.inkscape.org/namespaces/inkscape"
   version="1.1"
   id="svg2"
   xml:space="preserve"
   width="1134.6667"
   height="1016"
   viewBox="0 0 1134.6667 1016"
   sodipodi:docname="hitit-gunesi.eps"><metadata
     id="metadata8"><rdf:RDF><cc:Work
         rdf:about=""><dc:format>image/svg+xml</dc:format><dc:type
           rdf:resource="http://purl.org/dc/dcmitype/StillImage" /></cc:Work></rdf:RDF></metadata><defs
     id="defs6" /><sodipodi:namedview
     pagecolor="#ffffff"
     bordercolor="#666666"
     borderopacity="1"
     objecttolerance="10"
     gridtolerance="10"
     guidetolerance="10"
     inkscape:pageopacity="0"
     inkscape:pageshadow="2"
     inkscape:window-width="640"
     inkscape:window-height="480"
     id="namedview4" /><g
     id="g10"
     inkscape:groupmode="layer"
     inkscape:label="ink_ext_XXXXXX"
     transform="matrix(1.3333333,0,0,-1.3333333,0,1016)"><g
       id="g12"
       transform="scale(0.1)"><path
         d="m 4416.66,1819.2 652.43,-650.56 652.44,650.56 z M 890.258,2058.56 c 16.719,0 32.93,-2.16 48.383,-6.19 -1.321,7.14 -2.02,14.51 -2.02,22.04 0,66.3 53.774,120.07 120.079,120.07 66.29,0 120.06,-53.77 120.06,-120.07 0,-34.53 -14.58,-65.66 -37.92,-87.56 1.76,-1.27 3.49,-2.58 5.18,-3.93 5.62,0.94 11.38,1.43 17.25,1.43 36.25,0 68.19,-18.46 86.96,-46.48 h 56.54 c -281.15,441.01 -441.825,951.05 -441.825,1494.54 0,214.32 25.016,423.43 72.524,625.16 l -68.539,39.69 c -30.282,-14.85 -67.172,-14.82 -98.539,3.35 -5.086,2.94 -9.828,6.25 -14.215,9.87 -2.145,-0.31 -4.297,-0.58 -6.461,-0.79 9.223,-30.65 6.25,-64.9 -11.051,-94.78 -33.223,-57.37 -106.695,-76.96 -164.078,-43.74 -57.371,33.22 -76.961,106.7 -43.734,164.08 18.523,31.98 49.554,52.21 83.332,58.11 -6.875,17.84 -9.848,37.1 -8.555,56.36 l -66.934,38.76 c -35.371,-20.68 -80.547,-22.29 -118.535,-0.3 -41.98,24.31 -63.32,70.59 -57.93,115.89 -34.722,-24.69 -82.058,-28.42 -121.324,-5.69 -22.183,12.85 -38.316,32.14 -47.418,54.14 L 4.44922,4663.81 280.813,4606.77 c 23.601,3.05 48.363,-1.34 70.546,-14.18 39.27,-22.74 59.594,-65.65 55.469,-108.05 36.602,27.22 87.36,31.75 129.344,7.44 37.984,-22 59.07,-61.98 58.746,-102.95 l 66.937,-38.75 c 16.059,10.7 34.239,17.71 53.141,20.63 -11.707,32.23 -9.605,69.22 8.918,101.2 33.227,57.38 106.695,76.97 164.074,43.75 57.379,-33.23 76.965,-106.7 43.739,-164.08 -17.305,-29.88 -45.52,-49.5 -76.696,-56.77 0.891,-1.97 1.731,-3.97 2.524,-5.99 5.328,-2.01 10.554,-4.47 15.64,-7.41 31.371,-18.17 49.766,-50.15 51.961,-83.8 l 40.543,-23.47 c 100.611,356.08 271.931,687.11 499.851,980.52 l -43.72,38.43 c -32.59,-8.67 -68.77,-1.44 -95.99,22.49 -4.41,3.88 -8.42,8.05 -12.02,12.45 -2.16,0.11 -4.32,0.27 -6.48,0.48 3.06,-31.86 -6.52,-64.87 -29.32,-90.8 -43.77,-49.8 -119.66,-54.69 -169.46,-10.92 -49.79,43.77 -54.68,119.65 -10.91,169.45 24.4,27.77 58.78,41.56 93.06,40.76 -3.26,18.84 -2.43,38.31 2.59,56.94 l -58.1,51.07 c -38.72,-13.39 -83.34,-6.16 -116.31,22.82 -36.429,32.02 -48.347,81.57 -34.226,124.95 -38.875,-17.45 -86.027,-11.88 -120.109,18.07 -19.25,16.93 -31.313,38.99 -35.953,62.34 l -142.27,243.7 259.941,-109.82 c 23.75,-1.6 47.184,-10.73 66.437,-27.66 34.08,-29.95 45.65,-76 33.34,-116.79 41.21,19.57 91.88,14.11 128.31,-17.91 32.97,-28.98 45.86,-72.3 37.56,-112.43 l 58.1,-51.06 c 17.84,7.37 37.03,10.7 56.14,9.88 -5.2,33.9 4.07,69.77 28.47,97.53 43.77,49.8 119.66,54.69 169.45,10.92 49.81,-43.77 54.69,-119.66 10.92,-169.46 -22.79,-25.93 -54.29,-39.68 -86.29,-40.72 0.49,-2.12 0.92,-4.25 1.31,-6.37 4.83,-3.01 9.48,-6.44 13.89,-10.32 27.23,-23.93 39.04,-58.88 34.64,-92.32 l 40.01,-35.18 c 237.76,283.29 529.85,528.21 862.44,722.5 l -32.15,52.73 c -33.69,1.43 -66.08,19.09 -84.96,50.04 -3.05,5.02 -5.63,10.19 -7.76,15.47 -2.04,0.74 -4.06,1.54 -6.05,2.39 -6.55,-31.33 -25.53,-59.99 -55.01,-77.97 -56.6,-34.52 -130.5,-16.61 -165.02,40 -34.53,56.6 -16.61,130.5 39.99,165.02 31.56,19.24 68.49,22.19 100.98,11.22 2.49,18.96 9.08,37.29 19.42,53.6 l -40.28,66.03 c -40.95,-1.25 -81.4,18.92 -104.25,56.4 -25.25,41.41 -21.89,92.26 4.5,129.48 -42.3,-5.09 -85.66,14.25 -109.28,52.99 -13.36,21.89 -18.3,46.54 -15.78,70.21 l -63.31,274.99 215.49,-182.19 c 22.2,-8.59 41.85,-24.28 55.19,-46.17 23.63,-38.74 20.97,-86.15 -2.92,-121.42 45.16,6.42 91.91,-13.87 117.17,-55.28 22.85,-37.47 22.27,-82.67 2.41,-118.51 l 40.26,-66.04 c 19.23,1.74 38.55,-0.8 56.54,-7.27 5.13,33.91 24.65,65.39 56.21,84.63 56.61,34.53 130.5,16.61 165.03,-39.99 34.52,-56.61 16.6,-130.51 -40,-165.03 -29.48,-17.98 -63.65,-21.73 -94.5,-13.2 -0.16,-2.17 -0.38,-4.33 -0.65,-6.48 3.71,-4.3 7.14,-8.96 10.19,-13.98 18.88,-30.95 19.75,-67.83 5.59,-98.44 l 34.23,-56.13 c 202.45,109.39 418.74,200.41 645.97,270.54 l -22.85,89.26 c -23.91,8.85 -45.95,25.89 -63.11,48.87 -13.4,-19.75 -32.77,-34.42 -56.32,-40.45 -56.64,-14.5 -116.04,26.4 -132.66,91.32 -16.61,64.92 15.83,129.33 72.46,143.82 33.21,8.5 67.36,-2.05 93.29,-25.31 5.48,13.08 12.73,24.93 21.5,35.04 l -20.69,80.86 c -34.8,9.06 -62.37,32.98 -70.83,66.02 -8.46,33.04 4.24,67.27 30.39,91.94 l -5.87,22.93 c -4.26,2.13 -8.37,4.57 -12.31,7.3 l -23.49,-36.46 -99.41,-25.44 65.1,-108.58 -27.71,-27.08 -115.83,82.94 -29.61,115.66 77.18,82.38 109.98,28.15 c 2.91,13.58 8.42,26.3 16.1,37.42 l -82.13,320.84 c -4.21,16.44 20.95,37.09 56.17,46.1 35.22,9.02 67.2,3 71.41,-13.44 l 83.32,-325.51 c 9.63,-5.7 18.4,-13.02 25.9,-21.7 l 109.68,28.08 107.27,-35.17 29.61,-115.66 -61.74,-128.38 -37.31,10.43 4.92,126.5 -99.41,-25.45 -37.91,20.58 c -1.06,-2.11 -2.19,-4.17 -3.39,-6.2 l 7.81,-30.5 c 32.07,-10.11 57.12,-33.18 65.1,-64.38 7.99,-31.21 -2.89,-63.48 -26.16,-87.75 l 24.07,-94.03 c 7.76,-4.18 15.24,-9.23 22.31,-15.08 12.1,34.22 39.13,61.39 75.15,70.61 59.54,15.24 121.11,-24.32 137.5,-88.36 16.39,-64.02 -18.6,-128.3 -78.14,-143.54 -25.86,-6.62 -52.11,-2.9 -74.87,8.69 -2.61,-24.27 -10.38,-46.65 -22.37,-65.09 l 24.46,-95.58 c 311.38,83.98 641.63,129.12 983.68,129.12 h -65.85 v 93.92 c -20.96,14.51 -38.1,36.48 -49.01,62.99 -17.88,-15.81 -40.28,-25.22 -64.6,-25.22 -58.46,0 -105.87,54.36 -105.87,121.37 0,67.01 47.41,121.36 105.87,121.36 34.27,0 64.74,-18.69 84.1,-47.65 8.55,11.31 18.5,20.99 29.51,28.61 v 83.46 c -31.45,17.41 -52.24,47.42 -52.24,81.53 0,34.1 20.79,64.12 52.24,81.53 v 23.66 c -3.59,3.12 -6.97,6.51 -10.12,10.13 l -31.79,-29.49 h -102.61 l 36.13,-121.33 -33.55,-19.36 -91.65,109.07 v 119.39 l 95.2,60.67 h 113.52 c 6.18,12.42 14.68,23.39 24.87,32.25 v 331.19 c 0,16.97 29.49,30.73 65.85,30.73 36.36,0 65.85,-13.76 65.85,-30.73 v -336 c 7.92,-7.91 14.6,-17.18 19.71,-27.44 h 113.22 l 95.19,-60.67 v -119.39 l -91.64,-109.07 -33.56,19.36 36.14,121.33 h -102.61 l -31.63,29.34 c -1.55,-1.78 -3.16,-3.5 -4.82,-5.17 v -31.48 c 28.56,-17.75 47.1,-46.31 47.1,-78.52 0,-32.21 -18.54,-60.77 -47.1,-78.52 v -97.05 c 6.48,-5.98 12.47,-12.73 17.87,-20.14 20.21,30.14 53.14,49.76 90.32,49.76 61.45,0 111.29,-53.6 111.29,-119.69 0,-66.09 -49.84,-119.69 -111.29,-119.69 -26.7,0 -51.21,10.12 -70.39,26.98 -8.54,-22.86 -21.62,-42.61 -37.8,-57.51 v -104.51 h -65.85 c 321.01,0 631.59,-39.79 925.93,-114.11 l 21.7,86.64 c -16.82,19.17 -28.1,44.64 -32.25,73.02 -21.18,-11 -45.19,-14.68 -68.78,-8.78 -56.71,14.2 -89.5,78.44 -73.22,143.45 16.28,65 75.47,106.21 132.17,92 33.26,-8.32 58.27,-33.85 70.01,-66.64 11.04,8.89 23.05,15.86 35.58,20.58 l 20.28,80.96 c -26.29,24.53 -39.16,58.69 -30.88,91.78 8.29,33.08 35.74,57.15 70.49,66.4 l 5.75,22.94 c -2.74,3.91 -5.19,8.02 -7.37,12.29 l -38,-20.88 -99.54,24.93 5.58,-126.47 -37.25,-10.64 -62.41,128.06 29,115.82 107.08,35.73 110.13,-27.58 c 9.01,10.55 19.92,19.13 31.96,25.25 l 80.46,321.27 c 4.12,16.45 36.06,22.65 71.33,13.81 35.27,-8.83 60.53,-29.34 56.41,-45.8 l -81.62,-325.94 c 5.76,-9.6 9.99,-20.21 12.45,-31.41 l 109.83,-27.5 77.61,-81.98 -29,-115.81 -115.39,-83.54 -27.85,26.93 64.52,108.92 -99.54,24.92 -23.55,36.14 c -1.93,-1.35 -3.91,-2.63 -5.93,-3.83 l -7.65,-30.55 c 23.4,-24.15 34.44,-56.36 26.62,-87.6 -7.83,-31.25 -32.75,-54.46 -64.76,-64.73 l -23.58,-94.15 c 4.84,-7.37 9.01,-15.37 12.45,-23.87 26.92,24.32 63.63,35.36 99.7,26.33 59.61,-14.93 94.93,-79.03 78.88,-143.14 -16.05,-64.11 -77.42,-104 -137.04,-89.07 -25.89,6.49 -47.2,22.25 -61.71,43.27 -13.84,-20.1 -31.33,-36.08 -50.65,-46.6 l -24.9,-99.44 c 254.59,-74.07 495.97,-174.26 720.15,-297.01 l 39.95,65.5 c -14.16,30.61 -13.28,67.49 5.59,98.44 3.06,5.02 6.48,9.68 10.2,13.98 -0.27,2.15 -0.49,4.31 -0.66,6.48 -30.85,-8.53 -65.02,-4.78 -94.5,13.2 -56.6,34.52 -74.51,108.42 -40,165.03 34.53,56.6 108.43,74.52 165.03,39.99 31.56,-19.24 51.08,-50.72 56.21,-84.63 18,6.47 37.31,9.01 56.54,7.27 l 40.27,66.04 c -19.86,35.84 -20.45,81.04 2.41,118.51 25.25,41.41 72,61.7 117.16,55.28 -23.89,35.27 -26.55,82.68 -2.92,121.42 13.35,21.89 33,37.58 55.19,46.17 l 215.5,182.19 -63.32,-274.99 c 2.53,-23.67 -2.43,-48.32 -15.77,-70.21 -23.63,-38.74 -66.99,-58.08 -109.29,-52.99 26.39,-37.22 29.76,-88.07 4.51,-129.48 -22.86,-37.48 -63.31,-57.65 -104.27,-56.4 l -40.27,-66.03 c 10.34,-16.31 16.93,-34.64 19.43,-53.6 32.48,10.97 69.41,8.02 100.97,-11.22 56.61,-34.52 74.52,-108.42 40,-165.02 -34.52,-56.61 -108.42,-74.52 -165.03,-40 -29.48,17.98 -48.46,46.64 -55.01,77.97 -1.99,-0.85 -4.01,-1.65 -6.05,-2.39 -2.13,-5.28 -4.7,-10.45 -7.76,-15.47 -18.87,-30.95 -51.26,-48.61 -84.96,-50.04 l -38.1,-62.48 c 324.45,-192.03 609.81,-432.45 843.08,-709.74 l 36.6,32.17 c -4.4,33.44 7.41,68.39 34.63,92.32 4.42,3.88 9.07,7.31 13.9,10.32 0.38,2.13 0.82,4.25 1.3,6.37 -31.99,1.04 -63.49,14.79 -86.29,40.72 -43.76,49.8 -38.88,125.69 10.92,169.46 49.8,43.77 125.69,38.88 169.46,-10.92 24.39,-27.76 33.67,-63.63 28.47,-97.53 19.1,0.82 38.3,-2.51 56.14,-9.88 l 58.1,51.06 c -8.3,40.13 4.59,83.46 37.56,112.43 36.43,32.02 87.1,37.48 128.31,17.91 -12.32,40.79 -0.74,86.84 33.33,116.79 19.27,16.93 42.69,26.06 66.45,27.66 l 259.93,109.82 -142.26,-243.7 c -4.64,-23.35 -16.7,-45.41 -35.96,-62.34 -34.08,-29.95 -81.24,-35.52 -120.11,-18.07 14.13,-43.38 2.21,-92.93 -34.23,-124.95 -32.96,-28.98 -77.59,-36.21 -116.31,-22.82 l -58.1,-51.07 c 5.03,-18.63 5.86,-38.1 2.6,-56.94 34.28,0.8 68.66,-12.99 93.06,-40.75 43.77,-49.81 38.88,-125.69 -10.92,-169.46 -49.8,-43.77 -125.68,-38.88 -169.45,10.92 -22.8,25.93 -32.39,58.94 -29.32,90.8 -2.15,-0.21 -4.32,-0.37 -6.49,-0.48 -3.59,-4.4 -7.59,-8.57 -12.01,-12.45 -27.22,-23.93 -63.4,-31.16 -96,-22.49 l -40.18,-35.32 c 228.66,-293.65 400.69,-625.01 501.7,-981.6 l 37.03,21.44 c 2.2,33.65 20.59,65.63 51.96,83.8 5.08,2.94 10.31,5.4 15.64,7.41 0.79,2.02 1.63,4.02 2.52,5.99 -31.17,7.27 -59.39,26.89 -76.69,56.77 -33.23,57.38 -13.64,130.85 43.74,164.08 57.37,33.22 130.85,13.63 164.07,-43.75 18.52,-31.98 20.63,-68.97 8.92,-101.2 18.9,-2.92 37.08,-9.93 53.14,-20.63 l 66.93,38.75 c -0.32,40.97 20.77,80.95 58.76,102.95 41.97,24.31 92.74,19.78 129.34,-7.44 -4.13,42.4 16.2,85.31 55.47,108.05 22.18,12.84 46.94,17.23 70.55,14.18 l 276.36,57.04 -187.05,-211.29 c -9.09,-22 -25.22,-41.29 -47.41,-54.14 -39.27,-22.73 -86.6,-19 -121.32,5.69 5.39,-45.3 -15.96,-91.58 -57.94,-115.89 -37.98,-21.99 -83.15,-20.38 -118.53,0.3 l -66.93,-38.76 c 1.29,-19.26 -1.69,-38.52 -8.55,-56.36 33.77,-5.9 64.8,-26.13 83.33,-58.11 33.22,-57.38 13.63,-130.86 -43.75,-164.08 -57.37,-33.22 -130.85,-13.63 -164.07,43.74 -17.3,29.88 -20.28,64.13 -11.05,94.78 -2.17,0.21 -4.32,0.48 -6.46,0.79 -4.39,-3.62 -9.12,-6.93 -14.21,-9.87 -31.37,-18.17 -68.26,-18.2 -98.54,-3.35 l -65,-37.63 c 47.81,-202.39 73.13,-412.17 73.13,-627.22 0,-545.6 -161.89,-1057.52 -445.06,-1499.71 h 58.64 c 18.76,28.03 50.71,46.48 86.96,46.48 5.87,0 11.63,-0.48 17.24,-1.42 1.7,1.35 3.43,2.66 5.2,3.92 -23.35,21.91 -37.93,53.03 -37.93,87.56 0,66.3 53.77,120.07 120.07,120.07 66.3,0 120.06,-53.77 120.06,-120.07 0,-5.38 -0.35,-10.68 -1.04,-15.88 14.25,3.39 29.11,5.2 44.4,5.2 58.32,0 110.54,-26.15 145.59,-67.36 41.31,-5.8 75.74,-33.04 91.68,-70.1 17.68,38.76 56.78,65.71 102.15,65.71 25.64,0 49.26,-8.6 68.16,-23.08 l 267.74,-89.12 -267.74,-89.13 c -18.9,-14.47 -42.52,-23.08 -68.16,-23.08 -45.37,0 -84.47,26.95 -102.15,65.71 -12.64,-29.37 -36.89,-52.57 -66.96,-63.82 C 8133.35,1231.18 7690.7,693.117 7162.95,581.559 6845.35,514.422 6261.77,488.602 6261.77,488.602 L 5619,461.512 c 0,0 -38.71,-54.211 -92.92,-78.735 -54.22,-24.523 -149.99,-31.027 -149.99,-31.027 L 5091.11,54.9375 4755.52,9.76172 4746.49,271.773 c 1.29,148.434 -167.79,125.204 -167.79,125.204 l -99.06,2.429 -222.82,-72.129 -0.41,0.266 -0.39,-0.266 -222.83,72.129 -99.05,-2.429 c 0,0 -169.08,23.23 -167.79,-125.204 L 3757.31,9.76172 3421.73,54.9375 3136.74,351.75 c 0,0 -95.77,6.504 -149.98,31.027 -54.21,24.524 -92.93,78.735 -92.93,78.735 l -642.78,27.09 c 0,0 -583.56,25.82 -901.17,92.957 -529.314,111.894 -974.134,655.071 -626.681,1187.801 -30.187,11.22 -54.527,34.47 -67.203,63.92 -17.68,-38.77 -56.769,-65.72 -102.148,-65.72 -25.637,0 -49.258,8.61 -68.16,23.09 l -267.739,89.12 267.739,89.12 c 18.902,14.48 42.523,23.09 68.16,23.09 45.379,0 84.468,-26.96 102.148,-65.71 16.172,37.57 51.352,65.05 93.426,70.32 34.933,38.09 85.101,61.97 140.836,61.97 z m 46.406,-376.47 c -14.863,-3.71 -30.406,-5.69 -46.406,-5.69 -18.442,0 -36.274,2.62 -53.145,7.5 -21.84,-278.98 19.996,-921.587 869.107,-921.587 0,0 433.8,-12.911 544.83,85.21 0,0 22.38,36.391 124.26,64.524 -398.22,237.313 -737.11,547.663 -992.5,909.623 h -134.58 c -18.77,-28.02 -50.71,-46.48 -86.96,-46.48 -5.87,0 -11.63,0.49 -17.24,1.43 -1.7,-1.35 -3.43,-2.66 -5.19,-3.92 23.34,-21.91 37.92,-53.04 37.92,-87.56 0,-66.31 -53.77,-120.07 -120.06,-120.07 -65.29,0 -118.423,52.13 -120.036,117.02 z M 2720.32,945.957 c 82.89,0.594 266.34,-11.312 386.13,-118.148 l 284.95,268.551 -671.08,632.48 z m 637.59,-239.148 345.2,-2.645 c 0,0 15.53,-8.531 59.84,23.777 L 3465.96,1024.07 3194.59,753.496 c 53.8,-16.828 108.25,-32.402 163.32,-46.687 z m 498.95,91.418 c 29.91,11.039 77.46,20.812 152.14,20.812 l 45.43,0.52 0.23,4.644 156.95,-1.808 v 942.585 l -671.09,-668.62 z m 466.59,24.425 134.72,1.551 0.24,-4.644 45.42,-0.52 c 89.06,0 139.55,-13.894 167.53,-27.269 l 323.17,304.59 -671.08,668.62 z m 439.63,-103.707 c 34.25,-21.59 46.65,-14.781 46.65,-14.781 l 391.35,3 c 47.03,11.895 93.29,24.672 138.78,38.301 0.84,1.473 1.71,2.906 2.56,4.359 l -4.7,6.41 -268.63,267.836 z m 654.95,118.825 c 132.68,108.195 332.59,110.168 397,107.679 l -0.29,5.141 v 778.25 l -671.08,-632.48 z m 722.36,73.488 c 99.45,-28.024 121.38,-63.735 121.38,-63.735 111.04,-98.121 544.84,-85.21 544.84,-85.21 849.12,0 890.95,642.607 869.12,921.587 -16.88,-4.88 -34.71,-7.5 -53.15,-7.5 -14.92,0 -29.43,1.71 -43.37,4.94 0.01,-0.45 0.01,-0.91 0.01,-1.37 0,-66.3 -53.76,-120.07 -120.06,-120.07 -66.3,0 -120.07,53.77 -120.07,120.07 0,34.53 14.58,65.66 37.93,87.56 -1.77,1.26 -3.5,2.58 -5.2,3.92 -5.61,-0.93 -11.37,-1.42 -17.24,-1.42 -36.26,0 -68.2,18.45 -86.96,46.48 l -136.85,0.31 C 6875.5,1456.54 6537.4,1147.6 6140.39,911.258 Z m 321.77,466.842 4.74,-3.19 c 147.83,135.64 277.17,284.85 388,444.29 h -835.11 z m -81.36,-78.87 -6.01,7.18 -448.2,422.43 v -719.68 l 0.39,-19.922 c 165.71,90.672 316.97,194.782 453.82,309.992 z m -4228.85,-0.54 -1.34,-1.19 c 142.04,-110.97 295.22,-210.87 457.86,-298.172 v 729.512 l -456.46,-430.2 z m -89.01,69.89 1.64,1.24 450.69,449.38 h -881.68 l -5.03,-0.35 c 127.02,-163.35 272.73,-314.26 434.38,-450.27 z m -509.23,559.04 -5.56,-0.11 c -46.94,66.67 -90.89,135.2 -131.63,205.45 l 3.76,3.94 442.55,441.27 652.44,-650.55 z m -190.13,301.02 4.74,3.41 419.94,418.4 -705.34,629.63 c 38.02,-383.92 96.04,-701.43 280.66,-1051.44 z m 3630.95,3529.99 -671.08,-668.62 c 0,387.84 19.88,823.55 0.33,1190.54 41.6,-0.52 81.82,-1.49 120.81,-2.9 l 9.32,-9.5 z m -351.38,496.79 -12.57,11.51 c 279.65,-22.61 498.19,-71.92 732.17,-143.95 l -17.4,-16.61 -276.26,-275.46 -425.71,424.48 z m -431.54,25.34 V 5090.01 l -671.09,668.62 539.49,508.46 v 0 h 0.01 l 5.07,4.78 -1.54,-0.08 3.53,4.72 c 42.13,2.28 83.68,3.7 124.53,4.25 z m -324.09,-29.51 7.87,9.41 c -234.51,-25.86 -479.36,-75.87 -712.02,-147.31 l 2.01,-2.66 280.58,-279.78 421.56,420.34 z m -821.07,-186.36 h -0.01 l -4.15,3.92 0.25,0.09 -3.68,3.77 c -118.38,-41.13 -232.37,-87.93 -338.79,-140 l 0.25,-9.24 v -14.31 -782.97 l 671.08,632.48 -324.95,306.26 z m -457.98,-204.15 -0.11,14.6 C 2442.21,5786.1 2285.9,5683.75 2141.28,5569.85 l 4.95,-8.06 462.24,-435.64 z m -549.36,-370.11 -6.04,7.08 c -163.54,-138.82 -310.61,-292.92 -438.25,-459.82 l 10.98,-2.09 h 889.47 z m -523.62,-561.67 11.21,-1.59 h 968.57 l -652.44,-650.55 -446.16,444.87 -0.27,-0.48 -7.69,6.91 c 39.25,68.61 81.61,135.58 126.78,200.84 z m -170.61,-302.58 -7.9,6.76 C 1173.27,4280.16 1116.43,3959.95 1081.53,3573.6 l 706.73,630.94 z m 5004.64,917.23 22.29,22.45 c -139.9,119.2 -295.04,226.74 -465.45,320.06 l 0.21,-30.27 0.02,-0.01 v -2.41 -727.28 z m 107.52,-53.34 -9.52,-8.04 -447.73,-446.43 h 848.43 c -111.28,163.07 -241.67,315.75 -391.18,454.47 z m -662.29,424.14 0.05,29.69 c -104.84,51.61 -215.04,98.06 -330.61,138.78 l -16.46,-18.83 -324.07,-305.42 671.08,-632.48 v 786.55 1.71 z M 4118.4,1819.2 3465.96,1168.64 2813.52,1819.2 Z m 298.26,1554.08 652.43,-650.55 652.44,650.55 z m 0,-1445.66 652.43,650.55 652.44,-650.55 z m 1398.08,90.35 -671.08,632.48 671.08,632.48 z m -1491.29,-36.14 671.08,668.62 -671.08,632.48 z m 3001.22,1391.45 -652.44,-650.55 -652.44,650.55 z m -1398.08,-1355.31 671.07,632.48 -671.07,632.48 z M 4118.4,3373.28 3465.96,2722.73 2813.52,3373.28 Z m 0,-1445.66 -652.44,650.55 -652.44,-650.55 z m -1398.08,90.35 671.08,632.48 -671.08,632.48 z m 1491.29,-36.14 -671.09,668.62 671.09,632.48 z m -3001.22,1391.45 652.44,-650.55 652.44,650.55 z m 1398.08,-1355.31 -671.08,632.48 671.08,632.48 z m 1808.19,3017.83 652.43,650.55 652.44,-650.55 z m -298.26,0 -652.44,650.55 -652.44,-650.55 z m 298.26,-1554.09 652.43,650.55 652.44,-650.55 z m 0,1445.66 652.43,-650.55 652.44,650.55 z m 1398.08,-90.35 -671.08,-632.48 671.08,-632.48 z m -1491.29,36.14 671.08,-668.62 -671.08,-632.48 z M 7324.67,3481.71 6672.23,4132.26 6019.79,3481.71 Z M 5926.59,4837.02 6597.66,4204.54 5926.59,3572.06 Z M 4118.4,3481.71 3465.96,4132.26 2813.52,3481.71 Z m 0,1445.66 -652.44,-650.55 -652.44,650.55 z m -1398.08,-90.35 671.08,-632.48 -671.08,-632.48 z m 1491.29,36.14 -671.09,-668.62 671.09,-632.48 z m -3001.22,-1391.45 652.44,650.55 652.44,-650.55 z m 1398.08,1355.31 -671.08,-632.48 671.08,-632.48 z m 4330.09,90.35 h -918.77 l 652.44,-650.55 402.23,401.07 c -40.86,85.14 -86.08,168.43 -135.9,249.48 z m 182.07,-350.37 -373.84,-372.46 599.9,-565.4 c -22.25,321.65 -97.4,639.72 -226.06,937.86 z m 224.61,-1362.53 -598.45,-564.02 368,-366.65 c 129.4,295.63 206.1,611.24 230.45,930.67 z m -277.17,-1030.99 -395.84,394.69 -652.44,-650.55 h 906.85 c 51.96,82.99 98.95,168.47 141.43,255.86"
         style="fill:#796057;fill-opacity:1;fill-rule:evenodd;stroke:none"
         id="path14" /></g></g></svg>
